<svg xmlns="http://www.w3.org/2000/svg" viewBox="0 0 512 512">
  <defs>
    <radialGradient id="bg" cx="50%" cy="45%" r="70%">
      <stop offset="0%" stop-color="#ffffff" stop-opacity="0.18"/>
      <stop offset="55%" stop-color="#ffffff" stop-opacity="0.10"/>
      <stop offset="100%" stop-color="#000000" stop-opacity="0.0"/>
    </radialGradient>
  </defs>
  <rect width="512" height="512" fill="#000000"/>
  <circle cx="256" cy="256" r="220" fill="url(#bg)"/>
  <!-- Mascara estilizada (placeholder). Se você quiser 100% igual à imagem, substitua este arquivo pelo SVG/PNG oficial. -->
  <path d="M256 64c-96 0-168 80-168 182 0 111 66 201 168 201s168-90 168-201C424 144 352 64 256 64z"
        fill="#f2f2f2"/>
  <path d="M168 226c22-24 52-36 88-36s66 12 88 36"
        fill="none" stroke="#222" stroke-width="18" stroke-linecap="round" opacity="0.85"/>
  <path d="M162 280c22 18 54 28 94 28s72-10 94-28"
        fill="none" stroke="#222" stroke-width="16" stroke-linecap="round" opacity="0.85"/>
  <path d="M180 176c26-18 52-27 76-27s50 9 76 27"
        fill="none" stroke="#222" stroke-width="18" stroke-linecap="round" opacity="0.85"/>
  <path d="M200 240c-10 8-18 16-24 26"
        fill="none" stroke="#222" stroke-width="12" stroke-linecap="round" opacity="0.6"/>
  <path d="M336 240c10 8 18 16 24 26"
        fill="none" stroke="#222" stroke-width="12" stroke-linecap="round" opacity="0.6"/>
  <path d="M216 340c18 10 26 16 40 16s22-6 40-16"
        fill="none" stroke="#222" stroke-width="14" stroke-linecap="round" opacity="0.85"/>
  <path d="M256 360c-10 22-14 38-14 56"
        fill="none" stroke="#222" stroke-width="12" stroke-linecap="round" opacity="0.9"/>
</svg>
